<mxfile host="app.diagrams.net" agent="Mozilla/5.0 (Windows NT 10.0; Win64; x64) AppleWebKit/537.36 (KHTML, like Gecko) Chrome/135.0.0.0 Safari/537.36" version="26.2.14" pages="2">
  <diagram id="lUGm6K-oWbU26NiWQRsZ" name="Page-2">
    <mxGraphModel dx="1425" dy="792" grid="1" gridSize="10" guides="1" tooltips="1" connect="1" arrows="1" fold="1" page="1" pageScale="1" pageWidth="850" pageHeight="1100" math="0" shadow="0">
      <root>
        <mxCell id="0" />
        <mxCell id="1" parent="0" />
        <mxCell id="L-5u7I5sxKxYxYdMryXC-1" value="" style="rounded=1;whiteSpace=wrap;html=1;" parent="1" vertex="1">
          <mxGeometry x="280" y="40" width="280" height="90" as="geometry" />
        </mxCell>
        <mxCell id="L-5u7I5sxKxYxYdMryXC-4" value="" style="endArrow=none;html=1;rounded=0;entryX=0.998;entryY=0.331;entryDx=0;entryDy=0;entryPerimeter=0;exitX=-0.003;exitY=0.331;exitDx=0;exitDy=0;exitPerimeter=0;" parent="1" edge="1">
          <mxGeometry width="50" height="50" relative="1" as="geometry">
            <mxPoint x="280" y="90" as="sourcePoint" />
            <mxPoint x="560" y="90" as="targetPoint" />
          </mxGeometry>
        </mxCell>
        <mxCell id="L-5u7I5sxKxYxYdMryXC-5" value="CheckoutContext" style="text;html=1;align=center;verticalAlign=middle;resizable=0;points=[];autosize=1;strokeColor=none;fillColor=none;" parent="1" vertex="1">
          <mxGeometry x="365" y="40" width="120" height="30" as="geometry" />
        </mxCell>
        <mxCell id="L-5u7I5sxKxYxYdMryXC-7" value="setPaymentStrategy(s: PaymentStrategy) : void&lt;div&gt;checkout(amount:double) : void&lt;/div&gt;" style="text;html=1;align=left;verticalAlign=middle;resizable=0;points=[];autosize=1;strokeColor=none;fillColor=none;" parent="1" vertex="1">
          <mxGeometry x="285" y="90" width="280" height="40" as="geometry" />
        </mxCell>
        <mxCell id="L-5u7I5sxKxYxYdMryXC-8" value="" style="endArrow=none;html=1;rounded=0;entryX=1;entryY=0.328;entryDx=0;entryDy=0;entryPerimeter=0;exitX=-0.003;exitY=0.331;exitDx=0;exitDy=0;exitPerimeter=0;" parent="1" source="L-5u7I5sxKxYxYdMryXC-1" target="L-5u7I5sxKxYxYdMryXC-1" edge="1">
          <mxGeometry width="50" height="50" relative="1" as="geometry">
            <mxPoint x="279" y="70" as="sourcePoint" />
            <mxPoint x="559" y="70" as="targetPoint" />
          </mxGeometry>
        </mxCell>
        <mxCell id="L-5u7I5sxKxYxYdMryXC-6" value="strategy: PaymentStrategy" style="text;html=1;align=center;verticalAlign=middle;resizable=0;points=[];autosize=1;strokeColor=none;fillColor=none;" parent="1" vertex="1">
          <mxGeometry x="277.92" y="65" width="160" height="30" as="geometry" />
        </mxCell>
        <mxCell id="L-5u7I5sxKxYxYdMryXC-9" value="C" style="ellipse;whiteSpace=wrap;html=1;aspect=fixed;fillColor=#94FF67;" parent="1" vertex="1">
          <mxGeometry x="355" y="45" width="20" height="20" as="geometry" />
        </mxCell>
        <mxCell id="L-5u7I5sxKxYxYdMryXC-10" value="" style="endArrow=classic;html=1;rounded=0;" parent="1" edge="1">
          <mxGeometry width="50" height="50" relative="1" as="geometry">
            <mxPoint x="419.77" y="130" as="sourcePoint" />
            <mxPoint x="420" y="200" as="targetPoint" />
          </mxGeometry>
        </mxCell>
        <mxCell id="L-5u7I5sxKxYxYdMryXC-11" value="" style="rounded=1;whiteSpace=wrap;html=1;" parent="1" vertex="1">
          <mxGeometry x="277.92" y="200" width="280" height="60" as="geometry" />
        </mxCell>
        <mxCell id="L-5u7I5sxKxYxYdMryXC-13" value="PaymentStrategy" style="text;html=1;align=center;verticalAlign=middle;resizable=0;points=[];autosize=1;strokeColor=none;fillColor=none;" parent="1" vertex="1">
          <mxGeometry x="362.92" y="200" width="120" height="30" as="geometry" />
        </mxCell>
        <mxCell id="L-5u7I5sxKxYxYdMryXC-14" value="pay(amount: double) : void" style="text;html=1;align=left;verticalAlign=middle;resizable=0;points=[];autosize=1;strokeColor=none;fillColor=none;" parent="1" vertex="1">
          <mxGeometry x="285" y="230" width="170" height="30" as="geometry" />
        </mxCell>
        <mxCell id="L-5u7I5sxKxYxYdMryXC-15" value="" style="endArrow=none;html=1;rounded=0;entryX=1;entryY=0.328;entryDx=0;entryDy=0;entryPerimeter=0;exitX=-0.003;exitY=0.331;exitDx=0;exitDy=0;exitPerimeter=0;" parent="1" edge="1">
          <mxGeometry width="50" height="50" relative="1" as="geometry">
            <mxPoint x="277.08000000000004" y="229.76999999999995" as="sourcePoint" />
            <mxPoint x="557.9200000000001" y="229.53" as="targetPoint" />
          </mxGeometry>
        </mxCell>
        <mxCell id="L-5u7I5sxKxYxYdMryXC-17" value="I" style="ellipse;whiteSpace=wrap;html=1;aspect=fixed;fillColor=#9C6FFF;" parent="1" vertex="1">
          <mxGeometry x="352.92" y="205" width="20" height="20" as="geometry" />
        </mxCell>
        <mxCell id="L-5u7I5sxKxYxYdMryXC-18" value="" style="rounded=1;whiteSpace=wrap;html=1;" parent="1" vertex="1">
          <mxGeometry x="80" y="340" width="220" height="60" as="geometry" />
        </mxCell>
        <mxCell id="L-5u7I5sxKxYxYdMryXC-19" value="CreditCardPayment" style="text;html=1;align=center;verticalAlign=middle;resizable=0;points=[];autosize=1;strokeColor=none;fillColor=none;" parent="1" vertex="1">
          <mxGeometry x="130" y="340" width="130" height="30" as="geometry" />
        </mxCell>
        <mxCell id="L-5u7I5sxKxYxYdMryXC-20" value="pay(amount: double) : void" style="text;html=1;align=left;verticalAlign=middle;resizable=0;points=[];autosize=1;strokeColor=none;fillColor=none;" parent="1" vertex="1">
          <mxGeometry x="82.91999999999999" y="370" width="170" height="30" as="geometry" />
        </mxCell>
        <mxCell id="L-5u7I5sxKxYxYdMryXC-21" value="" style="endArrow=none;html=1;rounded=0;entryX=1;entryY=0.5;entryDx=0;entryDy=0;exitX=-0.017;exitY=0;exitDx=0;exitDy=0;exitPerimeter=0;" parent="1" source="L-5u7I5sxKxYxYdMryXC-20" target="L-5u7I5sxKxYxYdMryXC-18" edge="1">
          <mxGeometry width="50" height="50" relative="1" as="geometry">
            <mxPoint x="60.00000000000003" y="369.77" as="sourcePoint" />
            <mxPoint x="340.84000000000003" y="369.53" as="targetPoint" />
          </mxGeometry>
        </mxCell>
        <mxCell id="L-5u7I5sxKxYxYdMryXC-24" value="C" style="ellipse;whiteSpace=wrap;html=1;aspect=fixed;fillColor=#94FF67;" parent="1" vertex="1">
          <mxGeometry x="120.84" y="345" width="20" height="20" as="geometry" />
        </mxCell>
        <mxCell id="L-5u7I5sxKxYxYdMryXC-30" value="" style="rounded=1;whiteSpace=wrap;html=1;" parent="1" vertex="1">
          <mxGeometry x="330" y="340" width="220" height="60" as="geometry" />
        </mxCell>
        <mxCell id="L-5u7I5sxKxYxYdMryXC-31" value="PayPalPayment" style="text;html=1;align=center;verticalAlign=middle;resizable=0;points=[];autosize=1;strokeColor=none;fillColor=none;" parent="1" vertex="1">
          <mxGeometry x="385.00000000000006" y="340" width="110" height="30" as="geometry" />
        </mxCell>
        <mxCell id="L-5u7I5sxKxYxYdMryXC-32" value="pay(amount: double) : void" style="text;html=1;align=left;verticalAlign=middle;resizable=0;points=[];autosize=1;strokeColor=none;fillColor=none;" parent="1" vertex="1">
          <mxGeometry x="332.91999999999996" y="370" width="170" height="30" as="geometry" />
        </mxCell>
        <mxCell id="L-5u7I5sxKxYxYdMryXC-33" value="" style="endArrow=none;html=1;rounded=0;entryX=1;entryY=0.5;entryDx=0;entryDy=0;exitX=-0.017;exitY=0;exitDx=0;exitDy=0;exitPerimeter=0;" parent="1" source="L-5u7I5sxKxYxYdMryXC-32" target="L-5u7I5sxKxYxYdMryXC-30" edge="1">
          <mxGeometry width="50" height="50" relative="1" as="geometry">
            <mxPoint x="310" y="369.77" as="sourcePoint" />
            <mxPoint x="590.84" y="369.53" as="targetPoint" />
          </mxGeometry>
        </mxCell>
        <mxCell id="L-5u7I5sxKxYxYdMryXC-34" value="C" style="ellipse;whiteSpace=wrap;html=1;aspect=fixed;fillColor=#94FF67;" parent="1" vertex="1">
          <mxGeometry x="370.84000000000003" y="345" width="20" height="20" as="geometry" />
        </mxCell>
        <mxCell id="L-5u7I5sxKxYxYdMryXC-35" value="" style="rounded=1;whiteSpace=wrap;html=1;" parent="1" vertex="1">
          <mxGeometry x="565" y="340" width="220" height="60" as="geometry" />
        </mxCell>
        <mxCell id="L-5u7I5sxKxYxYdMryXC-36" value="BitCoinPayment" style="text;html=1;align=center;verticalAlign=middle;resizable=0;points=[];autosize=1;strokeColor=none;fillColor=none;" parent="1" vertex="1">
          <mxGeometry x="635.84" y="340" width="110" height="30" as="geometry" />
        </mxCell>
        <mxCell id="L-5u7I5sxKxYxYdMryXC-37" value="pay(amount: double) : void" style="text;html=1;align=left;verticalAlign=middle;resizable=0;points=[];autosize=1;strokeColor=none;fillColor=none;" parent="1" vertex="1">
          <mxGeometry x="567.92" y="370" width="170" height="30" as="geometry" />
        </mxCell>
        <mxCell id="L-5u7I5sxKxYxYdMryXC-38" value="" style="endArrow=none;html=1;rounded=0;entryX=1;entryY=0.5;entryDx=0;entryDy=0;exitX=-0.017;exitY=0;exitDx=0;exitDy=0;exitPerimeter=0;" parent="1" source="L-5u7I5sxKxYxYdMryXC-37" target="L-5u7I5sxKxYxYdMryXC-35" edge="1">
          <mxGeometry width="50" height="50" relative="1" as="geometry">
            <mxPoint x="545" y="369.77" as="sourcePoint" />
            <mxPoint x="825.84" y="369.53" as="targetPoint" />
          </mxGeometry>
        </mxCell>
        <mxCell id="L-5u7I5sxKxYxYdMryXC-39" value="C" style="ellipse;whiteSpace=wrap;html=1;aspect=fixed;fillColor=#94FF67;" parent="1" vertex="1">
          <mxGeometry x="615.84" y="345" width="20" height="20" as="geometry" />
        </mxCell>
        <mxCell id="L-5u7I5sxKxYxYdMryXC-45" value="" style="html=1;labelBackgroundColor=#ffffff;startArrow=none;startFill=0;startSize=6;endArrow=classic;endFill=1;endSize=6;jettySize=auto;orthogonalLoop=1;strokeWidth=1;dashed=1;fontSize=14;rounded=0;exitX=0.501;exitY=0.096;exitDx=0;exitDy=0;exitPerimeter=0;entryX=0.25;entryY=1;entryDx=0;entryDy=0;" parent="1" source="L-5u7I5sxKxYxYdMryXC-19" target="L-5u7I5sxKxYxYdMryXC-11" edge="1">
          <mxGeometry width="60" height="60" relative="1" as="geometry">
            <mxPoint x="210" y="320" as="sourcePoint" />
            <mxPoint x="270" y="260" as="targetPoint" />
          </mxGeometry>
        </mxCell>
        <mxCell id="L-5u7I5sxKxYxYdMryXC-46" value="" style="html=1;labelBackgroundColor=#ffffff;startArrow=none;startFill=0;startSize=6;endArrow=classic;endFill=1;endSize=6;jettySize=auto;orthogonalLoop=1;strokeWidth=1;dashed=1;fontSize=14;rounded=0;exitX=0.49;exitY=0.078;exitDx=0;exitDy=0;exitPerimeter=0;entryX=0.82;entryY=1.06;entryDx=0;entryDy=0;entryPerimeter=0;" parent="1" source="L-5u7I5sxKxYxYdMryXC-31" target="L-5u7I5sxKxYxYdMryXC-14" edge="1">
          <mxGeometry width="60" height="60" relative="1" as="geometry">
            <mxPoint x="205" y="353" as="sourcePoint" />
            <mxPoint x="358" y="270" as="targetPoint" />
          </mxGeometry>
        </mxCell>
        <mxCell id="L-5u7I5sxKxYxYdMryXC-47" value="" style="html=1;labelBackgroundColor=#ffffff;startArrow=none;startFill=0;startSize=6;endArrow=classic;endFill=1;endSize=6;jettySize=auto;orthogonalLoop=1;strokeWidth=1;dashed=1;fontSize=14;rounded=0;exitX=0.311;exitY=0;exitDx=0;exitDy=0;exitPerimeter=0;entryX=0.824;entryY=0.977;entryDx=0;entryDy=0;entryPerimeter=0;" parent="1" source="L-5u7I5sxKxYxYdMryXC-36" target="L-5u7I5sxKxYxYdMryXC-11" edge="1">
          <mxGeometry width="60" height="60" relative="1" as="geometry">
            <mxPoint x="449" y="352" as="sourcePoint" />
            <mxPoint x="434" y="272" as="targetPoint" />
          </mxGeometry>
        </mxCell>
        <mxCell id="L-5u7I5sxKxYxYdMryXC-48" value="User" style="shape=umlActor;verticalLabelPosition=bottom;verticalAlign=top;html=1;outlineConnect=0;fillColor=#CACACA;" parent="1" vertex="1">
          <mxGeometry x="136.88" y="510" width="30" height="60" as="geometry" />
        </mxCell>
        <mxCell id="L-5u7I5sxKxYxYdMryXC-49" value="User" style="shape=umlActor;verticalLabelPosition=bottom;verticalAlign=top;html=1;outlineConnect=0;fillColor=#CACACA;" parent="1" vertex="1">
          <mxGeometry x="140.84" y="630" width="30" height="60" as="geometry" />
        </mxCell>
        <mxCell id="L-5u7I5sxKxYxYdMryXC-51" value="" style="endArrow=classic;html=1;rounded=0;" parent="1" edge="1">
          <mxGeometry relative="1" as="geometry">
            <mxPoint x="180" y="550" as="sourcePoint" />
            <mxPoint x="333.96" y="609" as="targetPoint" />
          </mxGeometry>
        </mxCell>
        <mxCell id="L-5u7I5sxKxYxYdMryXC-52" value="checkout(amount)" style="edgeLabel;resizable=0;html=1;;align=center;verticalAlign=middle;" parent="L-5u7I5sxKxYxYdMryXC-51" connectable="0" vertex="1">
          <mxGeometry relative="1" as="geometry">
            <mxPoint x="-14" as="offset" />
          </mxGeometry>
        </mxCell>
        <mxCell id="L-5u7I5sxKxYxYdMryXC-54" value="" style="endArrow=none;dashed=1;html=1;rounded=0;" parent="1" edge="1">
          <mxGeometry width="50" height="50" relative="1" as="geometry">
            <mxPoint x="332.91999999999996" y="710" as="sourcePoint" />
            <mxPoint x="332.91999999999996" y="550" as="targetPoint" />
          </mxGeometry>
        </mxCell>
        <mxCell id="L-5u7I5sxKxYxYdMryXC-55" value="CheckoutContext&amp;nbsp;&lt;div&gt;(On sends to specfic strategy)&lt;/div&gt;" style="rounded=1;whiteSpace=wrap;html=1;fillColor=#CECECE;" parent="1" vertex="1">
          <mxGeometry x="270.84" y="500" width="120" height="50" as="geometry" />
        </mxCell>
        <mxCell id="L-5u7I5sxKxYxYdMryXC-56" value="CheckoutContext&amp;nbsp;&lt;div&gt;(On return resolver)&lt;/div&gt;" style="rounded=1;whiteSpace=wrap;html=1;fillColor=#CECECE;" parent="1" vertex="1">
          <mxGeometry x="271.88" y="710" width="120" height="30" as="geometry" />
        </mxCell>
        <mxCell id="L-5u7I5sxKxYxYdMryXC-58" value="" style="endArrow=classic;html=1;rounded=0;exitX=1;exitY=0.5;exitDx=0;exitDy=0;" parent="1" edge="1" source="L-5u7I5sxKxYxYdMryXC-55">
          <mxGeometry relative="1" as="geometry">
            <mxPoint x="333.96" y="590" as="sourcePoint" />
            <mxPoint x="580" y="510" as="targetPoint" />
          </mxGeometry>
        </mxCell>
        <mxCell id="L-5u7I5sxKxYxYdMryXC-59" value="pay(amount)" style="edgeLabel;resizable=0;html=1;;align=center;verticalAlign=middle;" parent="L-5u7I5sxKxYxYdMryXC-58" connectable="0" vertex="1">
          <mxGeometry relative="1" as="geometry" />
        </mxCell>
        <mxCell id="L-5u7I5sxKxYxYdMryXC-60" value="PaymentStrategy&lt;div&gt;(PayPal&lt;span style=&quot;background-color: transparent; color: light-dark(rgb(0, 0, 0), rgb(255, 255, 255));&quot;&gt;)&lt;/span&gt;&lt;/div&gt;" style="rounded=1;whiteSpace=wrap;html=1;fillColor=#CECECE;" parent="1" vertex="1">
          <mxGeometry x="582.92" y="490" width="155" height="40" as="geometry" />
        </mxCell>
        <mxCell id="L-5u7I5sxKxYxYdMryXC-61" value="PaymentStrategy&lt;div&gt;(Card)&lt;/div&gt;" style="rounded=1;whiteSpace=wrap;html=1;fillColor=#CECECE;direction=south;" parent="1" vertex="1">
          <mxGeometry x="582.92" y="710" width="170" height="37.5" as="geometry" />
        </mxCell>
        <mxCell id="L-5u7I5sxKxYxYdMryXC-63" value="" style="html=1;labelBackgroundColor=#ffffff;startArrow=none;startFill=0;startSize=6;endArrow=classic;endFill=1;endSize=6;jettySize=auto;orthogonalLoop=1;strokeWidth=1;dashed=1;fontSize=14;rounded=0;entryX=0.5;entryY=0;entryDx=0;entryDy=0;" parent="1" edge="1" target="L-5u7I5sxKxYxYdMryXC-56">
          <mxGeometry width="60" height="60" relative="1" as="geometry">
            <mxPoint x="580" y="510" as="sourcePoint" />
            <mxPoint x="330" y="690" as="targetPoint" />
          </mxGeometry>
        </mxCell>
        <mxCell id="L-5u7I5sxKxYxYdMryXC-64" value="returns: result" style="text;html=1;align=center;verticalAlign=middle;resizable=0;points=[];autosize=1;strokeColor=none;fillColor=none;" parent="1" vertex="1">
          <mxGeometry x="280.84" y="740" width="100" height="30" as="geometry" />
        </mxCell>
        <mxCell id="19NuwAKj685VU1NdpPf7-1" value="PaymentStrategy&lt;div&gt;(PayPal&lt;span style=&quot;background-color: transparent; color: light-dark(rgb(0, 0, 0), rgb(255, 255, 255));&quot;&gt;)&lt;/span&gt;&lt;/div&gt;" style="rounded=1;whiteSpace=wrap;html=1;fillColor=#CECECE;" vertex="1" parent="1">
          <mxGeometry x="582.92" y="600" width="155" height="40" as="geometry" />
        </mxCell>
        <mxCell id="19NuwAKj685VU1NdpPf7-3" value="" style="endArrow=classic;html=1;rounded=0;entryX=0;entryY=0.5;entryDx=0;entryDy=0;exitX=1;exitY=0.5;exitDx=0;exitDy=0;" edge="1" parent="1" source="L-5u7I5sxKxYxYdMryXC-55" target="19NuwAKj685VU1NdpPf7-1">
          <mxGeometry relative="1" as="geometry">
            <mxPoint x="394" y="540" as="sourcePoint" />
            <mxPoint x="582.92" y="510" as="targetPoint" />
          </mxGeometry>
        </mxCell>
        <mxCell id="19NuwAKj685VU1NdpPf7-4" value="pay(amount)" style="edgeLabel;resizable=0;html=1;;align=center;verticalAlign=middle;" connectable="0" vertex="1" parent="19NuwAKj685VU1NdpPf7-3">
          <mxGeometry relative="1" as="geometry" />
        </mxCell>
        <mxCell id="19NuwAKj685VU1NdpPf7-5" value="" style="endArrow=classic;html=1;rounded=0;exitX=1;exitY=0.5;exitDx=0;exitDy=0;entryX=0.5;entryY=1;entryDx=0;entryDy=0;" edge="1" parent="1" source="L-5u7I5sxKxYxYdMryXC-55" target="L-5u7I5sxKxYxYdMryXC-61">
          <mxGeometry relative="1" as="geometry">
            <mxPoint x="390.84000000000003" y="540" as="sourcePoint" />
            <mxPoint x="579.92" y="620" as="targetPoint" />
          </mxGeometry>
        </mxCell>
        <mxCell id="19NuwAKj685VU1NdpPf7-6" value="pay(amount)" style="edgeLabel;resizable=0;html=1;;align=center;verticalAlign=middle;" connectable="0" vertex="1" parent="19NuwAKj685VU1NdpPf7-5">
          <mxGeometry relative="1" as="geometry" />
        </mxCell>
        <mxCell id="19NuwAKj685VU1NdpPf7-7" value="" style="html=1;labelBackgroundColor=#ffffff;startArrow=none;startFill=0;startSize=6;endArrow=classic;endFill=1;endSize=6;jettySize=auto;orthogonalLoop=1;strokeWidth=1;dashed=1;fontSize=14;rounded=0;entryX=0.5;entryY=0;entryDx=0;entryDy=0;exitX=0;exitY=0.5;exitDx=0;exitDy=0;" edge="1" parent="1" source="19NuwAKj685VU1NdpPf7-1" target="L-5u7I5sxKxYxYdMryXC-56">
          <mxGeometry width="60" height="60" relative="1" as="geometry">
            <mxPoint x="590" y="520" as="sourcePoint" />
            <mxPoint x="340" y="700" as="targetPoint" />
          </mxGeometry>
        </mxCell>
        <mxCell id="19NuwAKj685VU1NdpPf7-8" value="" style="html=1;labelBackgroundColor=#ffffff;startArrow=none;startFill=0;startSize=6;endArrow=classic;endFill=1;endSize=6;jettySize=auto;orthogonalLoop=1;strokeWidth=1;dashed=1;fontSize=14;rounded=0;exitX=0.5;exitY=1;exitDx=0;exitDy=0;entryX=0.984;entryY=0.5;entryDx=0;entryDy=0;entryPerimeter=0;" edge="1" parent="1" source="L-5u7I5sxKxYxYdMryXC-61" target="L-5u7I5sxKxYxYdMryXC-56">
          <mxGeometry width="60" height="60" relative="1" as="geometry">
            <mxPoint x="593" y="630" as="sourcePoint" />
            <mxPoint x="400" y="720" as="targetPoint" />
          </mxGeometry>
        </mxCell>
        <mxCell id="19NuwAKj685VU1NdpPf7-10" value="" style="endArrow=classic;html=1;rounded=0;" edge="1" parent="1">
          <mxGeometry relative="1" as="geometry">
            <mxPoint x="270" y="710" as="sourcePoint" />
            <mxPoint x="180" y="670" as="targetPoint" />
          </mxGeometry>
        </mxCell>
        <mxCell id="19NuwAKj685VU1NdpPf7-11" value="checkout(receipt)" style="edgeLabel;resizable=0;html=1;;align=center;verticalAlign=middle;" connectable="0" vertex="1" parent="19NuwAKj685VU1NdpPf7-10">
          <mxGeometry relative="1" as="geometry">
            <mxPoint x="-5" as="offset" />
          </mxGeometry>
        </mxCell>
      </root>
    </mxGraphModel>
  </diagram>
  <diagram name="Copy of Page-2" id="63b4EiFnNVFmnFwXSQhC">
    <mxGraphModel dx="1819" dy="826" grid="1" gridSize="10" guides="1" tooltips="1" connect="1" arrows="1" fold="1" page="1" pageScale="1" pageWidth="850" pageHeight="1100" math="0" shadow="0">
      <root>
        <mxCell id="i5ax4PUgCOzi5IlD9gOW-0" />
        <mxCell id="i5ax4PUgCOzi5IlD9gOW-1" parent="i5ax4PUgCOzi5IlD9gOW-0" />
        <mxCell id="i5ax4PUgCOzi5IlD9gOW-2" value="" style="rounded=1;whiteSpace=wrap;html=1;" vertex="1" parent="i5ax4PUgCOzi5IlD9gOW-1">
          <mxGeometry x="273" y="100" width="280" height="90" as="geometry" />
        </mxCell>
        <mxCell id="i5ax4PUgCOzi5IlD9gOW-3" value="" style="endArrow=none;html=1;rounded=0;entryX=0.998;entryY=0.331;entryDx=0;entryDy=0;entryPerimeter=0;exitX=-0.003;exitY=0.331;exitDx=0;exitDy=0;exitPerimeter=0;" edge="1" parent="i5ax4PUgCOzi5IlD9gOW-1">
          <mxGeometry width="50" height="50" relative="1" as="geometry">
            <mxPoint x="273" y="150" as="sourcePoint" />
            <mxPoint x="553" y="150" as="targetPoint" />
          </mxGeometry>
        </mxCell>
        <mxCell id="i5ax4PUgCOzi5IlD9gOW-4" value="CheckoutContext" style="text;html=1;align=center;verticalAlign=middle;resizable=0;points=[];autosize=1;strokeColor=none;fillColor=none;" vertex="1" parent="i5ax4PUgCOzi5IlD9gOW-1">
          <mxGeometry x="358" y="100" width="120" height="30" as="geometry" />
        </mxCell>
        <mxCell id="i5ax4PUgCOzi5IlD9gOW-5" value="setPaymentStrategy(s: PaymentStrategy) : void&lt;div&gt;checkout(amount:double) : void&lt;/div&gt;" style="text;html=1;align=left;verticalAlign=middle;resizable=0;points=[];autosize=1;strokeColor=none;fillColor=none;" vertex="1" parent="i5ax4PUgCOzi5IlD9gOW-1">
          <mxGeometry x="293" y="150" width="280" height="40" as="geometry" />
        </mxCell>
        <mxCell id="i5ax4PUgCOzi5IlD9gOW-6" value="" style="endArrow=none;html=1;rounded=0;entryX=1;entryY=0.328;entryDx=0;entryDy=0;entryPerimeter=0;exitX=-0.003;exitY=0.331;exitDx=0;exitDy=0;exitPerimeter=0;" edge="1" parent="i5ax4PUgCOzi5IlD9gOW-1" source="i5ax4PUgCOzi5IlD9gOW-2" target="i5ax4PUgCOzi5IlD9gOW-2">
          <mxGeometry width="50" height="50" relative="1" as="geometry">
            <mxPoint x="272" y="130" as="sourcePoint" />
            <mxPoint x="552" y="130" as="targetPoint" />
          </mxGeometry>
        </mxCell>
        <mxCell id="i5ax4PUgCOzi5IlD9gOW-7" value="strategy: PaymentStrategy" style="text;html=1;align=center;verticalAlign=middle;resizable=0;points=[];autosize=1;strokeColor=none;fillColor=none;" vertex="1" parent="i5ax4PUgCOzi5IlD9gOW-1">
          <mxGeometry x="270.92" y="125" width="160" height="30" as="geometry" />
        </mxCell>
        <mxCell id="i5ax4PUgCOzi5IlD9gOW-8" value="C" style="ellipse;whiteSpace=wrap;html=1;aspect=fixed;fillColor=#94FF67;" vertex="1" parent="i5ax4PUgCOzi5IlD9gOW-1">
          <mxGeometry x="348" y="105" width="20" height="20" as="geometry" />
        </mxCell>
        <mxCell id="i5ax4PUgCOzi5IlD9gOW-9" value="" style="endArrow=classic;html=1;rounded=0;" edge="1" parent="i5ax4PUgCOzi5IlD9gOW-1">
          <mxGeometry width="50" height="50" relative="1" as="geometry">
            <mxPoint x="412.77" y="190" as="sourcePoint" />
            <mxPoint x="413" y="260" as="targetPoint" />
          </mxGeometry>
        </mxCell>
        <mxCell id="i5ax4PUgCOzi5IlD9gOW-10" value="" style="rounded=1;whiteSpace=wrap;html=1;" vertex="1" parent="i5ax4PUgCOzi5IlD9gOW-1">
          <mxGeometry x="270.92" y="260" width="280" height="60" as="geometry" />
        </mxCell>
        <mxCell id="i5ax4PUgCOzi5IlD9gOW-11" value="PaymentStrategy" style="text;html=1;align=center;verticalAlign=middle;resizable=0;points=[];autosize=1;strokeColor=none;fillColor=none;" vertex="1" parent="i5ax4PUgCOzi5IlD9gOW-1">
          <mxGeometry x="355.92" y="260" width="120" height="30" as="geometry" />
        </mxCell>
        <mxCell id="i5ax4PUgCOzi5IlD9gOW-12" value="pay(amount: double) : void" style="text;html=1;align=left;verticalAlign=middle;resizable=0;points=[];autosize=1;strokeColor=none;fillColor=none;" vertex="1" parent="i5ax4PUgCOzi5IlD9gOW-1">
          <mxGeometry x="278" y="290" width="170" height="30" as="geometry" />
        </mxCell>
        <mxCell id="i5ax4PUgCOzi5IlD9gOW-13" value="" style="endArrow=none;html=1;rounded=0;entryX=1;entryY=0.328;entryDx=0;entryDy=0;entryPerimeter=0;exitX=-0.003;exitY=0.331;exitDx=0;exitDy=0;exitPerimeter=0;" edge="1" parent="i5ax4PUgCOzi5IlD9gOW-1">
          <mxGeometry width="50" height="50" relative="1" as="geometry">
            <mxPoint x="270.08000000000004" y="289.77" as="sourcePoint" />
            <mxPoint x="550.9200000000001" y="289.53" as="targetPoint" />
          </mxGeometry>
        </mxCell>
        <mxCell id="i5ax4PUgCOzi5IlD9gOW-14" value="I" style="ellipse;whiteSpace=wrap;html=1;aspect=fixed;fillColor=#9C6FFF;" vertex="1" parent="i5ax4PUgCOzi5IlD9gOW-1">
          <mxGeometry x="345.92" y="265" width="20" height="20" as="geometry" />
        </mxCell>
        <mxCell id="i5ax4PUgCOzi5IlD9gOW-15" value="" style="rounded=1;whiteSpace=wrap;html=1;" vertex="1" parent="i5ax4PUgCOzi5IlD9gOW-1">
          <mxGeometry x="73" y="400" width="220" height="60" as="geometry" />
        </mxCell>
        <mxCell id="i5ax4PUgCOzi5IlD9gOW-16" value="CreditCardPayment" style="text;html=1;align=center;verticalAlign=middle;resizable=0;points=[];autosize=1;strokeColor=none;fillColor=none;" vertex="1" parent="i5ax4PUgCOzi5IlD9gOW-1">
          <mxGeometry x="123" y="400" width="130" height="30" as="geometry" />
        </mxCell>
        <mxCell id="i5ax4PUgCOzi5IlD9gOW-17" value="pay(amount: double) : void" style="text;html=1;align=left;verticalAlign=middle;resizable=0;points=[];autosize=1;strokeColor=none;fillColor=none;" vertex="1" parent="i5ax4PUgCOzi5IlD9gOW-1">
          <mxGeometry x="75.91999999999999" y="430" width="170" height="30" as="geometry" />
        </mxCell>
        <mxCell id="i5ax4PUgCOzi5IlD9gOW-18" value="" style="endArrow=none;html=1;rounded=0;entryX=1;entryY=0.5;entryDx=0;entryDy=0;exitX=-0.017;exitY=0;exitDx=0;exitDy=0;exitPerimeter=0;" edge="1" parent="i5ax4PUgCOzi5IlD9gOW-1" source="i5ax4PUgCOzi5IlD9gOW-17" target="i5ax4PUgCOzi5IlD9gOW-15">
          <mxGeometry width="50" height="50" relative="1" as="geometry">
            <mxPoint x="53.00000000000003" y="429.77" as="sourcePoint" />
            <mxPoint x="333.84000000000003" y="429.53" as="targetPoint" />
          </mxGeometry>
        </mxCell>
        <mxCell id="i5ax4PUgCOzi5IlD9gOW-19" value="C" style="ellipse;whiteSpace=wrap;html=1;aspect=fixed;fillColor=#94FF67;" vertex="1" parent="i5ax4PUgCOzi5IlD9gOW-1">
          <mxGeometry x="113.84" y="405" width="20" height="20" as="geometry" />
        </mxCell>
        <mxCell id="i5ax4PUgCOzi5IlD9gOW-20" value="" style="rounded=1;whiteSpace=wrap;html=1;" vertex="1" parent="i5ax4PUgCOzi5IlD9gOW-1">
          <mxGeometry x="323" y="400" width="220" height="60" as="geometry" />
        </mxCell>
        <mxCell id="i5ax4PUgCOzi5IlD9gOW-21" value="PayPalPayment" style="text;html=1;align=center;verticalAlign=middle;resizable=0;points=[];autosize=1;strokeColor=none;fillColor=none;" vertex="1" parent="i5ax4PUgCOzi5IlD9gOW-1">
          <mxGeometry x="378.00000000000006" y="400" width="110" height="30" as="geometry" />
        </mxCell>
        <mxCell id="i5ax4PUgCOzi5IlD9gOW-22" value="pay(amount: double) : void" style="text;html=1;align=left;verticalAlign=middle;resizable=0;points=[];autosize=1;strokeColor=none;fillColor=none;" vertex="1" parent="i5ax4PUgCOzi5IlD9gOW-1">
          <mxGeometry x="325.91999999999996" y="430" width="170" height="30" as="geometry" />
        </mxCell>
        <mxCell id="i5ax4PUgCOzi5IlD9gOW-23" value="" style="endArrow=none;html=1;rounded=0;entryX=1;entryY=0.5;entryDx=0;entryDy=0;exitX=-0.017;exitY=0;exitDx=0;exitDy=0;exitPerimeter=0;" edge="1" parent="i5ax4PUgCOzi5IlD9gOW-1" source="i5ax4PUgCOzi5IlD9gOW-22" target="i5ax4PUgCOzi5IlD9gOW-20">
          <mxGeometry width="50" height="50" relative="1" as="geometry">
            <mxPoint x="303" y="429.77" as="sourcePoint" />
            <mxPoint x="583.84" y="429.53" as="targetPoint" />
          </mxGeometry>
        </mxCell>
        <mxCell id="i5ax4PUgCOzi5IlD9gOW-24" value="C" style="ellipse;whiteSpace=wrap;html=1;aspect=fixed;fillColor=#94FF67;" vertex="1" parent="i5ax4PUgCOzi5IlD9gOW-1">
          <mxGeometry x="363.84000000000003" y="405" width="20" height="20" as="geometry" />
        </mxCell>
        <mxCell id="i5ax4PUgCOzi5IlD9gOW-25" value="" style="rounded=1;whiteSpace=wrap;html=1;" vertex="1" parent="i5ax4PUgCOzi5IlD9gOW-1">
          <mxGeometry x="558" y="400" width="220" height="60" as="geometry" />
        </mxCell>
        <mxCell id="i5ax4PUgCOzi5IlD9gOW-26" value="BitCoinPayment" style="text;html=1;align=center;verticalAlign=middle;resizable=0;points=[];autosize=1;strokeColor=none;fillColor=none;" vertex="1" parent="i5ax4PUgCOzi5IlD9gOW-1">
          <mxGeometry x="628.84" y="400" width="110" height="30" as="geometry" />
        </mxCell>
        <mxCell id="i5ax4PUgCOzi5IlD9gOW-27" value="pay(amount: double) : void" style="text;html=1;align=left;verticalAlign=middle;resizable=0;points=[];autosize=1;strokeColor=none;fillColor=none;" vertex="1" parent="i5ax4PUgCOzi5IlD9gOW-1">
          <mxGeometry x="560.92" y="430" width="170" height="30" as="geometry" />
        </mxCell>
        <mxCell id="i5ax4PUgCOzi5IlD9gOW-28" value="" style="endArrow=none;html=1;rounded=0;entryX=1;entryY=0.5;entryDx=0;entryDy=0;exitX=-0.017;exitY=0;exitDx=0;exitDy=0;exitPerimeter=0;" edge="1" parent="i5ax4PUgCOzi5IlD9gOW-1" source="i5ax4PUgCOzi5IlD9gOW-27" target="i5ax4PUgCOzi5IlD9gOW-25">
          <mxGeometry width="50" height="50" relative="1" as="geometry">
            <mxPoint x="538" y="429.77" as="sourcePoint" />
            <mxPoint x="818.84" y="429.53" as="targetPoint" />
          </mxGeometry>
        </mxCell>
        <mxCell id="i5ax4PUgCOzi5IlD9gOW-29" value="C" style="ellipse;whiteSpace=wrap;html=1;aspect=fixed;fillColor=#94FF67;" vertex="1" parent="i5ax4PUgCOzi5IlD9gOW-1">
          <mxGeometry x="608.84" y="405" width="20" height="20" as="geometry" />
        </mxCell>
        <mxCell id="i5ax4PUgCOzi5IlD9gOW-30" value="" style="html=1;labelBackgroundColor=#ffffff;startArrow=none;startFill=0;startSize=6;endArrow=classic;endFill=1;endSize=6;jettySize=auto;orthogonalLoop=1;strokeWidth=1;dashed=1;fontSize=14;rounded=0;exitX=0.501;exitY=0.096;exitDx=0;exitDy=0;exitPerimeter=0;entryX=0.25;entryY=1;entryDx=0;entryDy=0;" edge="1" parent="i5ax4PUgCOzi5IlD9gOW-1" source="i5ax4PUgCOzi5IlD9gOW-16" target="i5ax4PUgCOzi5IlD9gOW-10">
          <mxGeometry width="60" height="60" relative="1" as="geometry">
            <mxPoint x="203" y="380" as="sourcePoint" />
            <mxPoint x="263" y="320" as="targetPoint" />
          </mxGeometry>
        </mxCell>
        <mxCell id="i5ax4PUgCOzi5IlD9gOW-31" value="" style="html=1;labelBackgroundColor=#ffffff;startArrow=none;startFill=0;startSize=6;endArrow=classic;endFill=1;endSize=6;jettySize=auto;orthogonalLoop=1;strokeWidth=1;dashed=1;fontSize=14;rounded=0;exitX=0.49;exitY=0.078;exitDx=0;exitDy=0;exitPerimeter=0;entryX=0.82;entryY=1.06;entryDx=0;entryDy=0;entryPerimeter=0;" edge="1" parent="i5ax4PUgCOzi5IlD9gOW-1" source="i5ax4PUgCOzi5IlD9gOW-21" target="i5ax4PUgCOzi5IlD9gOW-12">
          <mxGeometry width="60" height="60" relative="1" as="geometry">
            <mxPoint x="198" y="413" as="sourcePoint" />
            <mxPoint x="351" y="330" as="targetPoint" />
          </mxGeometry>
        </mxCell>
        <mxCell id="i5ax4PUgCOzi5IlD9gOW-32" value="" style="html=1;labelBackgroundColor=#ffffff;startArrow=none;startFill=0;startSize=6;endArrow=classic;endFill=1;endSize=6;jettySize=auto;orthogonalLoop=1;strokeWidth=1;dashed=1;fontSize=14;rounded=0;exitX=0.311;exitY=0;exitDx=0;exitDy=0;exitPerimeter=0;entryX=0.824;entryY=0.977;entryDx=0;entryDy=0;entryPerimeter=0;" edge="1" parent="i5ax4PUgCOzi5IlD9gOW-1" source="i5ax4PUgCOzi5IlD9gOW-26" target="i5ax4PUgCOzi5IlD9gOW-10">
          <mxGeometry width="60" height="60" relative="1" as="geometry">
            <mxPoint x="442" y="412" as="sourcePoint" />
            <mxPoint x="427" y="332" as="targetPoint" />
          </mxGeometry>
        </mxCell>
        <mxCell id="i5ax4PUgCOzi5IlD9gOW-33" value="User" style="shape=umlActor;verticalLabelPosition=bottom;verticalAlign=top;html=1;outlineConnect=0;fillColor=#CACACA;" vertex="1" parent="i5ax4PUgCOzi5IlD9gOW-1">
          <mxGeometry x="212.92" y="560" width="30" height="60" as="geometry" />
        </mxCell>
        <mxCell id="i5ax4PUgCOzi5IlD9gOW-34" value="User" style="shape=umlActor;verticalLabelPosition=bottom;verticalAlign=top;html=1;outlineConnect=0;fillColor=#CACACA;" vertex="1" parent="i5ax4PUgCOzi5IlD9gOW-1">
          <mxGeometry x="212.92" y="700" width="30" height="60" as="geometry" />
        </mxCell>
        <mxCell id="i5ax4PUgCOzi5IlD9gOW-35" value="" style="endArrow=none;dashed=1;html=1;rounded=0;" edge="1" parent="i5ax4PUgCOzi5IlD9gOW-1">
          <mxGeometry width="50" height="50" relative="1" as="geometry">
            <mxPoint x="228" y="690" as="sourcePoint" />
            <mxPoint x="228" y="650" as="targetPoint" />
          </mxGeometry>
        </mxCell>
        <mxCell id="i5ax4PUgCOzi5IlD9gOW-36" value="" style="endArrow=classic;html=1;rounded=0;" edge="1" parent="i5ax4PUgCOzi5IlD9gOW-1">
          <mxGeometry relative="1" as="geometry">
            <mxPoint x="230" y="659" as="sourcePoint" />
            <mxPoint x="410" y="659" as="targetPoint" />
          </mxGeometry>
        </mxCell>
        <mxCell id="i5ax4PUgCOzi5IlD9gOW-37" value="checkout(amount)" style="edgeLabel;resizable=0;html=1;;align=center;verticalAlign=middle;" connectable="0" vertex="1" parent="i5ax4PUgCOzi5IlD9gOW-36">
          <mxGeometry relative="1" as="geometry" />
        </mxCell>
        <mxCell id="i5ax4PUgCOzi5IlD9gOW-38" value="" style="endArrow=none;dashed=1;html=1;rounded=0;" edge="1" parent="i5ax4PUgCOzi5IlD9gOW-1">
          <mxGeometry width="50" height="50" relative="1" as="geometry">
            <mxPoint x="407.59" y="760" as="sourcePoint" />
            <mxPoint x="407.59" y="600" as="targetPoint" />
          </mxGeometry>
        </mxCell>
        <mxCell id="i5ax4PUgCOzi5IlD9gOW-39" value="CheckoutContext" style="rounded=1;whiteSpace=wrap;html=1;fillColor=#CECECE;" vertex="1" parent="i5ax4PUgCOzi5IlD9gOW-1">
          <mxGeometry x="347.92" y="580" width="120" height="20" as="geometry" />
        </mxCell>
        <mxCell id="i5ax4PUgCOzi5IlD9gOW-40" value="CheckoutContext" style="rounded=1;whiteSpace=wrap;html=1;fillColor=#CECECE;" vertex="1" parent="i5ax4PUgCOzi5IlD9gOW-1">
          <mxGeometry x="347.92" y="760" width="120" height="20" as="geometry" />
        </mxCell>
        <mxCell id="i5ax4PUgCOzi5IlD9gOW-41" value="" style="endArrow=classic;html=1;rounded=0;" edge="1" parent="i5ax4PUgCOzi5IlD9gOW-1">
          <mxGeometry relative="1" as="geometry">
            <mxPoint x="410" y="640" as="sourcePoint" />
            <mxPoint x="560" y="640" as="targetPoint" />
          </mxGeometry>
        </mxCell>
        <mxCell id="i5ax4PUgCOzi5IlD9gOW-42" value="pay(amount)" style="edgeLabel;resizable=0;html=1;;align=center;verticalAlign=middle;" connectable="0" vertex="1" parent="i5ax4PUgCOzi5IlD9gOW-41">
          <mxGeometry relative="1" as="geometry" />
        </mxCell>
        <mxCell id="i5ax4PUgCOzi5IlD9gOW-43" value="PaymentStrategy&lt;div&gt;(e.g., PayPalPayment)&lt;/div&gt;" style="rounded=1;whiteSpace=wrap;html=1;fillColor=#CECECE;" vertex="1" parent="i5ax4PUgCOzi5IlD9gOW-1">
          <mxGeometry x="500" y="570" width="155" height="40" as="geometry" />
        </mxCell>
        <mxCell id="i5ax4PUgCOzi5IlD9gOW-44" value="PaymentStrategy&lt;div&gt;(e.g., PayPalPayment)&lt;/div&gt;" style="rounded=1;whiteSpace=wrap;html=1;fillColor=#CECECE;" vertex="1" parent="i5ax4PUgCOzi5IlD9gOW-1">
          <mxGeometry x="500" y="750" width="155" height="40" as="geometry" />
        </mxCell>
        <mxCell id="i5ax4PUgCOzi5IlD9gOW-45" value="" style="endArrow=none;dashed=1;html=1;rounded=0;" edge="1" parent="i5ax4PUgCOzi5IlD9gOW-1">
          <mxGeometry width="50" height="50" relative="1" as="geometry">
            <mxPoint x="557.92" y="750" as="sourcePoint" />
            <mxPoint x="558" y="610" as="targetPoint" />
          </mxGeometry>
        </mxCell>
        <mxCell id="i5ax4PUgCOzi5IlD9gOW-46" value="" style="html=1;labelBackgroundColor=#ffffff;startArrow=none;startFill=0;startSize=6;endArrow=classic;endFill=1;endSize=6;jettySize=auto;orthogonalLoop=1;strokeWidth=1;dashed=1;fontSize=14;rounded=0;" edge="1" parent="i5ax4PUgCOzi5IlD9gOW-1">
          <mxGeometry width="60" height="60" relative="1" as="geometry">
            <mxPoint x="560" y="700" as="sourcePoint" />
            <mxPoint x="410" y="700" as="targetPoint" />
          </mxGeometry>
        </mxCell>
        <mxCell id="i5ax4PUgCOzi5IlD9gOW-47" value="result" style="text;html=1;align=center;verticalAlign=middle;resizable=0;points=[];autosize=1;strokeColor=none;fillColor=none;" vertex="1" parent="i5ax4PUgCOzi5IlD9gOW-1">
          <mxGeometry x="422.92" y="670" width="50" height="30" as="geometry" />
        </mxCell>
        <mxCell id="2rnQDGb2HhdO4g52vIsF-0" value="&lt;font style=&quot;font-size: 36px;&quot;&gt;DCD&lt;/font&gt;" style="text;html=1;align=center;verticalAlign=middle;resizable=0;points=[];autosize=1;strokeColor=none;fillColor=none;fontStyle=5" vertex="1" parent="i5ax4PUgCOzi5IlD9gOW-1">
          <mxGeometry x="360.92" y="20" width="100" height="60" as="geometry" />
        </mxCell>
        <mxCell id="2rnQDGb2HhdO4g52vIsF-1" value="&lt;font style=&quot;font-size: 36px;&quot;&gt;SD&lt;/font&gt;" style="text;html=1;align=center;verticalAlign=middle;resizable=0;points=[];autosize=1;strokeColor=none;fillColor=none;fontStyle=5" vertex="1" parent="i5ax4PUgCOzi5IlD9gOW-1">
          <mxGeometry x="378" y="490" width="70" height="60" as="geometry" />
        </mxCell>
      </root>
    </mxGraphModel>
  </diagram>
</mxfile>
